# xmcd CD database file
#
# Track frame offsets:
#	150
#	13713
#	27378
#	40727
#	58449
#	72680
#	92714
#	108011
#	121874
#	135743
#	157877
#	178029
#
# Disc length: 2613 seconds
#
# Revision: 0
# Processed by: cddbd v1.5PL3 Copyright (c) Steve Scherf et al.
# Submitted via: CDex 1.51
#
DISCID=a10a330c
DTITLE=Big Joe Turner - The Essential Recordings
DYEAR=2001
DGENRE=Blues
TTITLE0=Shake, Rattle And Roll
TTITLE1=Chains Of Love
TTITLE2=Roll 'Em Hawk
TTITLE3=Piney Brown Blues
TTITLE4=Cherry Red
TTITLE5=Nothin' From Nothin' Blues
TTITLE6=Honey Hush
TTITLE7=Corrine Corrina
TTITLE8=TV Mama
TTITLE9=Wee Baby Blues
TTITLE10=Squeeze Me, Baby
TTITLE11=Roll 'Em Pete
EXTD=YEAR: 2001
EXTT0=
EXTT1=
EXTT2=
EXTT3=
EXTT4=
EXTT5=
EXTT6=
EXTT7=
EXTT8=
EXTT9=
EXTT10=
EXTT11=
PLAYORDER=
